<?xml version="1.0" encoding="UTF-8"?>
<svg width="118px" height="40px" viewBox="0 0 118 40" version="1.1" xmlns="http://www.w3.org/2000/svg" xmlns:xlink="http://www.w3.org/1999/xlink">
    <title>编组 84备份</title>
    <g id="页面-2" stroke="none" stroke-width="1" fill="none" fill-rule="evenodd">
        <g id="登录页面" transform="translate(-420.000000, -324.000000)" fill="#FFFFFF">
            <g id="编组-84备份" transform="translate(420.000000, 324.000000)">
                <path d="M21,0 C32.5979797,0 42,9.40202025 42,21 C42,23.2384798 41.6497623,25.3951572 41.0010966,27.4182226 C40.0497584,25.4535299 38.4105293,23.7129567 36.0698862,22.507184 C34.1293054,21.5075018 32.3114719,20.9921666 30.6392524,20.8138704 L30.6392524,20.8138704 L30.3245299,20.7841147 L30.2679525,20.8008313 C34.9143424,19.5061906 34.2290472,15.5286839 34.0730674,14.8408375 L34.0730674,14.8408375 L34.0577523,14.7764095 C34.0516027,14.7518349 34.0479651,14.7389741 34.0479651,14.7389741 C32.4775531,16.9369983 31.5569457,17.5787962 28.1841836,18.2977689 C26.2151945,18.7174989 24.2090192,20.3624627 23.0973514,22.2996691 C21.3979764,23.1923663 20.173593,24.260396 19.5166186,24.9084056 L19.5166186,24.9084056 L19.3803729,25.0448743 C19.1054541,25.3246243 18.962882,25.4974359 18.962882,25.4974359 C28.2439097,22.0395916 30.9745036,25.8056846 31.9704834,29.2742535 C33.0159567,33.9773228 29.0808022,39.9967587 18.3520303,35.6624689 C5.90312742,29.2742535 7.60207905,13.0682329 7.81286736,12 C4.9576714,21.5052516 8.60527629,31.8295232 13.0561825,36.9863144 L13.0561825,36.9863144 L12.686198,36.704847 C9.58925826,34.3460938 6.18419364,31.6018866 5.11665206,24.2970034 C4.26832277,31.5518149 8.22447601,37.0769234 11.2331596,39.5955766 C4.55437194,36.0804497 0,29.0720901 0,21 C0,9.40202025 9.40202025,0 21,0 Z" id="形状结合备份-2"></path>
                <g id="编组备份-2" transform="translate(53.000000, 9.000000)" fill-rule="nonzero">
                    <path d="M32.4880799,15.3247502 C32.9396282,15.3147516 33.3776156,15.4811101 33.7109813,15.7892386 C34.0488399,16.0992204 34.2176097,16.4736204 34.2172904,16.9124384 C34.2233577,17.3263933 34.0624119,17.6896532 33.7344526,18.0022182 C33.98253,18.1394805 34.1908945,18.3398176 34.3389578,18.5834341 C34.4930371,18.8153674 34.5702013,19.0908277 34.5593003,19.370013 C34.5656872,19.818518 34.3938837,20.2006675 34.0438904,20.5164615 C33.6999642,20.8325783 33.2848259,20.9906368 32.7984756,20.9906368 L27.0159193,20.9906368 L27.0159193,15.3247502 L32.4880799,15.3247502 Z M28.6684887,17.5711497 L32.0100323,17.5711497 C32.1413072,17.5759432 32.2691674,17.5282657 32.3659334,17.4384388 C32.4637016,17.3596824 32.5173362,17.2376591 32.5096351,17.1115048 C32.515861,16.9827569 32.4597546,16.8589947 32.3592274,16.7797274 C32.2688157,16.6829205 32.1391597,16.6339139 32.0081162,16.6470164 L28.6704048,16.6470164 L28.6684887,17.5711497 Z M28.6684887,19.6703079 L32.3803036,19.6703079 C32.5108111,19.6659844 32.636119,19.6175535 32.7362048,19.5327534 C32.8287896,19.4508967 32.8819026,19.3325984 32.8819026,19.2082413 C32.8819026,19.0838842 32.8287896,18.9655858 32.7362048,18.883729 C32.6442268,18.7862583 32.5128449,18.7372677 32.3803036,18.7510181 L28.6704048,18.7510181 L28.6684887,19.6703079 Z M44.5576421,15.3243243 C45.1142467,15.3243243 45.5841512,15.501901 45.9673558,15.8570545 C46.3579051,16.2076878 46.5531797,16.6404908 46.5531797,17.1554634 C46.5543458,17.5915771 46.3879251,18.0110992 46.0890233,18.3255327 C45.7788017,18.6548153 45.3708095,18.8727985 44.9269556,18.9464056 L46.7217897,20.9886995 L44.7770267,20.9886995 L43.1321213,18.989024 L40.7653544,18.989024 L40.7653544,20.9906368 L39.1108687,20.9906368 L39.1108687,15.3243243 L44.5576421,15.3243243 Z M40.7663123,17.6271718 L44.4125034,17.6271718 C44.5715333,17.6271718 44.6936798,17.5845533 44.7779848,17.4993165 C44.9586466,17.312284 44.9586466,17.013656 44.7779848,16.8266235 C44.6936798,16.7413867 44.5715333,16.7002212 44.4125034,16.703127 L40.7663123,16.703127 L40.7663123,17.6271718 Z M54.0357271,15.3325574 C54.5363681,15.3261491 55.0224189,15.5029719 55.4042463,15.830418 C55.8069304,16.1620022 56.003642,16.5584826 55.9943813,17.0198593 L55.9943813,19.3173795 C55.9943813,19.779079 55.7960731,20.1755594 55.3994563,20.5068208 C55.0180242,20.831117 54.5340578,21.0060812 54.0357271,20.9998385 L48.1588068,20.9998385 L48.1588068,15.3325574 L54.0357271,15.3325574 Z M49.8204773,19.6210357 L53.7238945,19.6210357 C53.8847674,19.6156905 54.0395104,19.5573607 54.1645798,19.4549208 C54.2803906,19.3543682 54.3457371,19.2067791 54.3427699,19.0524673 L54.3427699,17.2799285 C54.3453795,17.1246459 54.2780583,16.9765772 54.1597897,16.877475 C54.0428942,16.7644522 53.8854941,16.7044688 53.7238945,16.7113601 L49.8204773,16.7113601 L49.8204773,19.6210357 Z M35.9973321,15.3243243 L37.6738518,15.3243243 L37.6738518,20.9906368 L35.9973321,20.9906368 L35.9973321,15.3243243 Z M18.0106128,15.3321315 L18.0106128,19.4771232 C18.0106128,20.3130137 18.6973737,20.9906368 19.5445361,20.9906368 L24.0449789,20.9906368 C24.8921413,20.9906368 25.5789022,20.3130137 25.5789022,19.4771232 L25.5789022,15.3243243 L25.5789022,15.3243243 L23.9023825,15.3243243 L23.9023825,18.8778394 C23.9023825,19.2957847 23.5590021,19.6345962 23.1354209,19.6345962 L20.4540944,19.6345962 C20.0305131,19.6345962 19.6871327,19.2957847 19.6871327,18.8778394 L19.6871327,15.3243243 L19.6871327,15.3243243 M63.6032953,15.3323891 L59.2187476,15.3323891 C58.2317943,15.3323891 57.4317106,16.1218272 57.4317106,17.0956484 C57.4317106,18.0694697 58.2317943,18.8589078 59.2187476,18.8589078 L62.9309052,18.8589078 C63.1477184,18.8589078 63.3234801,19.032331 63.3234801,19.2462593 C63.3234801,19.4601874 63.1477184,19.6336105 62.9309052,19.6336105 L57.4317106,19.6336105 L57.4317106,19.6336105 C57.4317106,20.3875296 58.0511244,20.9987015 58.8152099,20.9987015 L63.2286695,20.9987015 C64.2069482,20.9987015 65,20.216202 65,19.2509396 C65,18.2856775 64.2069482,17.5031778 63.2286695,17.5031778 L59.509909,17.5031778 C59.2880681,17.5031778 59.1082303,17.325733 59.1082303,17.1068438 C59.1082303,16.8879546 59.2880681,16.7105098 59.509909,16.7105098 L65,16.7105098 L65,16.7105098 C65,15.9493947 64.3746739,15.3323891 63.6032953,15.3323891 Z M0,15.3243243 L0,16.6803649 L5.18218392,16.6803649 L0,19.6345962 L0,20.9906368 L7.56828944,20.9906368 L7.56828944,19.6345962 L2.41916845,19.6345962 L7.56828944,16.6803649 L7.56828944,15.3243243 L0,15.3243243 Z M10.6818262,15.3243243 L9.00530641,15.3243243 L9.00530641,20.9906368 L10.6818262,20.9906368 L10.6818262,18.8597158 L14.897076,18.8597158 L14.897076,20.9906368 L16.5735958,20.9906368 L16.5735958,15.3243243 L14.897076,15.3243243 L14.897076,17.5036752 L10.6818262,17.5036752 L10.6818262,15.3243243 Z" id="形状结合" opacity="0.8"></path>
                    <path d="M5.00550706,6.13328257 L0,6.13328257 L0,4.66709664 L5.00550706,4.66709664 L5.00550706,2.9210221 L0.282092796,2.9210221 L0.938122555,0.107064717 L2.88871771,0.107064717 L2.56507636,1.4548362 L5.00550706,1.4548362 L5.00550706,0.0661579145 L6.87519187,0.0661579145 L6.87519187,1.45698919 L11.3405678,1.45698919 L11.3405678,2.92317509 L6.87519187,2.92317509 L6.87519187,4.66924964 L11.7844812,4.66924964 L11.7844812,6.13543554 L6.87519187,6.13543554 L6.87519187,10.7837401 L5.00550706,10.7837401 L5.00550706,6.13328257 Z M1.98995694,10.7815871 L0.0393617856,10.7815871 L1.91123336,6.60694027 L3.86182851,6.60694027 L1.98995694,10.7815871 Z M11.8304033,10.7815871 L9.87324786,10.7815871 L7.99044246,6.60694027 L9.94103761,6.60694027 L11.8304033,10.7815871 Z M28.9392346,3.57384813 L20.3993057,4.50966445 L20.4670828,4.50966445 L20.4670828,4.77981927 L23.8559436,4.77981927 L23.8559436,4.24599333 L25.7340282,4.24599333 L25.7340282,4.77981927 L29.5536022,4.77981927 L29.5536022,5.84963237 L25.7340282,5.84963237 L25.7340282,6.4288443 L29.5536022,6.4288443 L29.5536022,7.4986574 L25.7340282,7.4986574 L25.7340282,8.06490191 L29.5536022,8.06490191 L29.5536022,9.13471501 L25.7340282,9.13471501 L25.7340282,9.71392696 L29.5536022,9.71392696 L29.5536022,10.7837401 L18.5977436,10.7837401 L18.5977436,4.73227202 L17.7231989,4.83601147 L17.7231989,3.52846212 L22.6993581,2.96221761 L22.6993581,0.0661579145 L24.5686975,0.0661579145 L24.5686975,2.75473871 L27.4612541,2.44352036 L26.5735913,0.185026037 L28.4298124,0.185026037 L29.5229931,2.97734629 L28.9304891,2.97734629 L28.9392346,3.57384813 Z M20.8081553,0.172058605 L19.7149744,2.96437885 L17.8434488,2.96437885 L18.9563069,0.172058605 L20.8081553,0.172058605 Z M20.4670828,5.84747113 L20.4670828,6.42668306 L23.8559436,6.42668306 L23.8559436,5.84747113 L20.4670828,5.84747113 Z M23.8559436,7.49649616 L20.4670828,7.49649616 L20.4670828,8.06274067 L23.8559436,8.06274067 L23.8559436,7.49649616 Z M23.8559436,9.13255377 L20.4670828,9.13255377 L20.4670828,9.71176572 L23.8559436,9.71176572 L23.8559436,9.13255377 Z M38.5555162,1.58458572 L38.5555162,2.66836921 L40.2315082,2.66836921 L40.2315082,3.95590401 L38.5555162,3.95590401 L38.5555162,10.7837401 L37.1355178,10.7837401 L37.1355178,3.95590401 L35.4463978,3.95590401 L35.4463978,2.66836921 L37.1355178,2.66836921 L37.1355178,1.63660732 L35.5798645,1.69513163 L35.5798645,0.33389956 L40.2862077,0.169164468 L40.2862077,1.53039654 L38.5555162,1.58458572 Z M35.4595257,10.7772374 L35.7264591,4.40025524 L36.8357646,4.40025524 L36.5666431,10.7772374 L35.4595257,10.7772374 Z M40.0302141,4.40025524 L40.2862077,10.7772374 L39.1769022,10.7772374 L38.9077809,4.40025524 L40.0302141,4.40025524 Z M46.14124,6.78457895 L47.2768011,6.78457895 L47.2768011,8.13063806 L46.14124,8.13063806 L46.14124,10.7620644 L44.3033373,10.7620644 L44.3033373,8.14147589 L40.5969008,8.14147589 L40.5969008,6.79541678 L44.3033373,6.79541678 L44.3033373,0.132315829 L46.14124,0.132315829 L46.14124,6.78457895 Z M43.8963733,3.52022304 L42.9467904,3.52022304 L43.9073132,6.09529264 L42.1087943,6.09529264 L40.9185337,2.87645565 L41.8790565,2.87645565 L40.9185337,0.301386054 L42.7039247,0.301386054 L43.8963733,3.52022304 Z M56.6228665,2.36350905 L56.6228665,3.63915641 L58.478616,3.63915641 L56.6228665,6.26168016 L56.6228665,9.1669616 C56.6245372,9.38216457 56.5859601,9.59582659 56.5090705,9.79723069 C56.436431,9.98570814 56.3288228,10.1591864 56.1917549,10.3087847 C56.0606459,10.4556706 55.9005514,10.57465 55.7212523,10.6584545 C55.5406863,10.7425534 55.3431966,10.7853479 55.1435189,10.7837837 L53.7451417,10.7837837 L54.2681654,9.50799761 L54.4870037,9.50799761 C54.6003875,9.50941241 54.7085774,9.46119516 54.7824356,9.37633181 C54.8633119,9.28599657 54.9063394,9.16871043 54.9027967,9.04824654 L54.9027967,8.17407196 L53.1695968,8.17407196 L54.9006083,5.72854158 L54.9006083,2.36350905 L53.1695968,2.36350905 L53.1695968,0.904392962 L54.9006083,0.904392962 L54.9006083,0 L56.6228665,0 L56.6228665,0.904392962 L58.1284746,0.904392962 L58.1284746,2.37214287 L56.6228665,2.36350905 Z M64.6783075,5.06157875 C64.5353374,5.59042844 64.3030341,6.09173384 63.9911549,6.54443786 C63.6047654,7.13070829 63.1589621,7.67672552 62.6606176,8.17407196 C63.0299263,8.45644528 63.4181542,8.71388767 63.8226494,8.94464066 C64.1890778,9.1595893 64.5858635,9.31962464 65,9.41950093 L65,10.783645 C64.3890224,10.7044265 63.7966445,10.5211097 63.2492929,10.2418726 C62.6486818,9.9438548 62.0829056,9.58196203 61.562049,9.16264469 C61.0396115,9.5830136 60.4715395,9.94496652 59.8682398,10.2418726 C59.3203863,10.5199059 58.728225,10.7031556 58.1175327,10.783645 L58.1175327,9.41950093 C58.5316692,9.31962464 58.9284547,9.1595893 59.2948833,8.94464066 C59.6993785,8.71388767 60.0876062,8.45644528 60.4569151,8.17407196 C60.0295835,7.74625427 59.6407753,7.28259867 59.2948833,6.78834336 C58.9977119,6.37842338 58.7557004,5.93221793 58.5749049,5.46089307 L60.1067735,5.46089307 C60.2790513,5.74000005 60.4729356,6.00556094 60.6866953,6.25520478 C60.9615966,6.58378041 61.2537825,6.89790753 61.562049,7.19629149 C61.9701387,6.79710337 62.3475807,6.36854848 62.691255,5.91416877 C62.9041273,5.65676814 63.076734,5.36938693 63.2033369,5.06157875 L58.4501671,5.06157875 L58.4501671,3.69743472 L60.6691882,3.69743472 L60.6691882,2.55561162 L58.4501671,2.55561162 L58.4501671,1.19146758 L60.6691882,1.19146758 L60.6691882,0.0518029381 L62.3104762,0.0518029381 L62.3104762,1.19146758 L64.6783075,1.19146758 L64.6783075,2.55561162 L62.3104762,2.55561162 L62.3104762,3.69743472 L64.6783075,3.69743472 L64.6783075,5.06157875 Z" id="形状结合"></path>
                </g>
            </g>
        </g>
    </g>
</svg>