<?xml version="1.0" encoding="UTF-8"?>
<svg width="400px" height="400px" viewBox="0 0 400 400" version="1.1" xmlns="http://www.w3.org/2000/svg" xmlns:xlink="http://www.w3.org/1999/xlink">
    <title>画板备份 7</title>
    <defs>
        <linearGradient x1="95.5568839%" y1="50%" x2="10.6277678%" y2="39.594236%" id="linearGradient-1">
            <stop stop-color="#DD1800" offset="0%"></stop>
            <stop stop-color="#FB8917" offset="100%"></stop>
        </linearGradient>
        <linearGradient x1="28.1713344%" y1="64.820766%" x2="45.9413149%" y2="10.3926117%" id="linearGradient-2">
            <stop stop-color="#DD1800" offset="0%"></stop>
            <stop stop-color="#DD1800" offset="100%"></stop>
        </linearGradient>
        <linearGradient x1="53.5118626%" y1="71.671477%" x2="96.4940669%" y2="50%" id="linearGradient-3">
            <stop stop-color="#DD1800" offset="0%"></stop>
            <stop stop-color="#FB8917" offset="100%"></stop>
        </linearGradient>
        <linearGradient x1="28.1713344%" y1="68.5844154%" x2="45.9413149%" y2="0.33454037%" id="linearGradient-4">
            <stop stop-color="#DD1800" offset="0%"></stop>
            <stop stop-color="#DD1800" offset="100%"></stop>
        </linearGradient>
        <linearGradient x1="16.6466702%" y1="73.3873612%" x2="42.7131617%" y2="1.82998721%" id="linearGradient-5">
            <stop stop-color="#DD1800" offset="0%"></stop>
            <stop stop-color="#FB8917" offset="100%"></stop>
            <stop stop-color="#FB8917" offset="100%"></stop>
        </linearGradient>
        <linearGradient x1="31.0580162%" y1="75.3542009%" x2="46.4780464%" y2="-17.7572048%" id="linearGradient-6">
            <stop stop-color="#DD1800" offset="0%"></stop>
            <stop stop-color="#DD1800" offset="100%"></stop>
        </linearGradient>
        <linearGradient x1="28.1713344%" y1="62.2985948%" x2="45.9413149%" y2="17.1329256%" id="linearGradient-7">
            <stop stop-color="#DD1800" offset="0%"></stop>
            <stop stop-color="#FB8917" offset="100%"></stop>
        </linearGradient>
        <linearGradient x1="28.1713344%" y1="55.7412851%" x2="45.9413149%" y2="34.6568452%" id="linearGradient-8">
            <stop stop-color="#DD1800" offset="0%"></stop>
            <stop stop-color="#DD1800" offset="100%"></stop>
        </linearGradient>
    </defs>
    <g id="画板备份-7" stroke="none" stroke-width="1" fill="none" fill-rule="evenodd">
        <g id="编组-4备份" transform="translate(0.000000, 53.000000)" fill-rule="nonzero">
            <path d="M174.850434,230.56064 C215.963103,246.7567 231.042629,224.263811 227.036275,206.68999 C223.21952,193.729245 212.756229,179.656179 177.190941,192.577424 C177.190941,192.577424 182.913177,185.814495 193.028868,180.63104 C197.290656,173.39253 204.979992,167.243168 212.527129,165.674227 C225.451534,162.987699 228.979149,160.589785 234.997371,152.376415 C234.997371,152.376415 240.029146,169.724822 220.512452,175.027304 L220.730492,174.965157 C227.467088,175.507098 234.840424,177.432592 242.745168,181.40366 C262.925463,191.540944 276.291124,211.441778 270.076456,236.098741 C264.805322,254.116544 245.955834,276.911351 215.118263,283.842702 C172.458619,296.442818 95.7812795,247.235823 138.110306,169.596972 C133.520405,188.298365 139.465873,212.854687 174.850434,230.56064 Z" id="path-2" fill="url(#linearGradient-1)"></path>
            <path d="M174.850434,230.56064 C215.963103,246.7567 231.042629,224.263811 227.036275,206.68999 C223.21952,193.729245 212.756229,179.656179 177.190941,192.577424 C177.190941,192.577424 182.913177,185.814495 193.028868,180.63104 C197.290656,173.39253 204.979992,167.243168 212.527129,165.674227 C225.451534,162.987699 228.979149,160.589785 234.997371,152.376415 C234.997371,152.376415 240.029146,169.724822 220.512452,175.027304 L220.730492,174.965157 C227.467088,175.507098 234.840424,177.432592 242.745168,181.40366 C261.989238,193.055079 271.611274,205.617612 271.611274,219.09126 C271.611274,239.301732 247.863316,256.541109 212.527129,256.541109 C177.190941,256.541109 122.488757,236.715588 138.110306,169.596972 C133.520405,188.298365 139.465873,212.854687 174.850434,230.56064 Z" id="path-2" fill="url(#linearGradient-2)"></path>
            <path d="M122.488757,166.982817 C136.129352,116.412091 181.730388,56.8568448 271.320292,60.7911898 C343.651358,67.3294621 388.097468,120.257327 398.687728,176.828904 C408.177714,227.522973 366.366969,314.938405 267.68666,288.271015 C324.73073,267.951778 333.856398,199.37014 307.635341,164.747997 C265.281374,108.824048 156.109966,103.436015 122.488757,166.982817 Z" id="path-5" fill="url(#linearGradient-3)"></path>
            <path d="M122.488757,166.982817 C150.972379,118.114447 197.32385,87.2904957 248.336154,94.6382494 C299.348458,101.986003 339.274151,127.604525 348.563117,176.913155 C353.536479,203.313257 348.563117,260.872938 267.68666,288.271015 C324.73073,267.951778 333.856398,199.37014 307.635341,164.747997 C265.281374,108.824048 156.109966,103.436015 122.488757,166.982817 Z" id="path-5" fill="url(#linearGradient-4)"></path>
            <path d="M311.548067,54.0147169 C274.664839,9.1082446 205.121509,-22.1140172 124.116314,19.5931688 C95.5457768,34.3032957 70.0940647,65.73537 58.3788956,101.800371 C40.4600295,156.963376 56.2309612,227.323513 118.772829,269.197116 C89.2096609,208.812963 108.746223,135.29273 139.657991,101.800371 C188.955397,48.3874956 250.62343,35.8342443 311.548067,54.0147169 Z" id="path-8" fill="url(#linearGradient-5)"></path>
            <path d="M311.548067,54.0147169 C271.611274,25.1896722 203.52489,19.8935326 162.690231,39.4005342 C132.097874,54.0147169 102.908558,85.790452 93.1836539,122.525426 C78.7855094,176.913155 88.7843506,219.09126 118.772829,269.197116 C89.2096609,208.812963 108.746223,135.29273 139.657991,101.800371 C188.955397,48.3874956 250.62343,35.8342443 311.548067,54.0147169 Z" id="path-8" fill="url(#linearGradient-6)"></path>
            <path d="M152.53923,180.7378 C118.730288,134.895624 64.955349,134.025683 28.8676415,150.274012 C-9.60833436,167.597649 -36.2029781,215.817258 -24.520883,265.948266 C42.667607,148.340731 154.590366,183.518975 152.53923,180.7378 Z" id="path-11" fill="url(#linearGradient-7)" transform="translate(62.635009, 203.313257) rotate(-90.000000) translate(-62.635009, -203.313257) "></path>
            <path d="M138.221936,174.470575 C114.770819,151.641292 73.8547367,150.64962 43.608552,163.674404 C11.2637142,177.602922 -13.9443753,203.351173 -19.3461255,230.255757 C46.2480196,147.745143 140.28833,176.482176 138.221936,174.470575 Z" id="path-11" fill="url(#linearGradient-8)" transform="translate(59.454645, 192.757589) rotate(-90.000000) translate(-59.454645, -192.757589) "></path>
        </g>
    </g>
</svg>